<?xml version="1.0" encoding="UTF-8" standalone="no"?>
<svg
   id="svg"
   version="1.1"
   viewBox="0 0 397.9859 375.43881"
   style="display:block"
   width="397.9859"
   height="375.43881"
   xmlns="http://www.w3.org/2000/svg"
   xmlns:svg="http://www.w3.org/2000/svg">
  <defs
     id="defs51" />
  <path
     d="m 302.97597,61.165053 c 3.14289,3.221467 4.48799,5.519912 5,10 -0.5543,-0.421523 -1.10859,-0.843047 -1.67969,-1.277344 -0.72445,-0.547851 -1.4489,-1.095703 -2.19531,-1.660156 -0.7193,-0.545273 -1.43859,-1.090547 -2.17969,-1.652344 -4.10847,-2.978231 -8.01816,-3.06758 -12.94531,-2.410156 -4.83443,1.639089 -9.4373,3.718652 -14,6 0.81984,0.375117 1.63969,0.750235 2.48437,1.136719 1.07766,0.511758 2.15532,1.023515 3.26563,1.550781 1.06734,0.498867 2.13469,0.997734 3.23437,1.511719 3.79498,2.266169 6.04558,4.860684 8.01563,8.800781 0.44145,5.628538 -0.57798,9.055043 -3,14 0.79922,0.146953 1.59844,0.293906 2.42187,0.445312 17.38012,3.549465 28.85897,12.766195 41.57813,24.554685 0.57492,0.52078 1.14984,1.04157 1.74219,1.57813 1.38281,1.29687 1.38281,1.29687 3.25781,3.42187 0,0.99 0,1.98 0,3 -5.41858,0.22578 -9.77488,-0.5333 -15,-2 -0.13535,0.62391 -0.2707,1.24782 -0.41016,1.89063 -0.69754,2.49453 -1.58434,3.50497 -3.58984,5.10937 -0.66,0 -1.32,0 -2,0 3.26721,4.38895 6.54898,8.7526 10,13 0.66,-2.31 1.32,-4.62 2,-7 1.32,-0.33 2.64,-0.66 4,-1 4.98104,5.96053 8.81433,11.88831 12.0625,18.9375 0.42265,0.90662 0.8453,1.81323 1.28076,2.74731 10.86708,23.80833 10.86708,23.80833 9.65674,36.31519 -1.65,0.33 -3.3,0.66 -5,1 -1.65,-1.98 -3.3,-3.96 -5,-6 0,2.88774 0.36379,5.36274 0.875,8.19922 5.41383,31.02292 5.41383,31.02292 1.78516,38.59765 -1.66016,2.20313 -1.66016,2.20313 -4.66016,4.20313 -0.99,0 -1.98,0 -3,0 -0.0699,0.62866 -0.13986,1.25732 -0.21191,1.90503 -3.82819,33.64433 -3.82819,33.64433 -13.35059,42.46997 -4.83262,2.28451 -9.18111,1.96171 -14.4375,1.625 -0.165,0.80437 -0.33,1.60875 -0.5,2.4375 -3.93163,9.33762 -12.34131,15.05838 -20.5,20.5625 1.155,-0.495 2.31,-0.99 3.5,-1.5 4.35283,-1.65563 7.87522,-1.74776 12.5,-1.5 0.67187,1.77734 0.67187,1.77734 1,4 -1.10938,1.81641 -1.10938,1.81641 -2.75,3.5625 -0.53109,0.57879 -1.06219,1.15758 -1.60938,1.75391 -1.53422,1.5744 -3.07914,3.13622 -4.64062,4.68359 10.02547,-4.19577 14.96542,-9.54616 20.5,-18.75 3.00986,-4.85484 5.14712,-7.20617 10.5,-9.25 3.24365,-0.43665 5.03442,-0.49837 7.9375,1 1.40513,2.64495 1.10952,4.84991 0.77734,7.76953 -3.71703,11.59795 -16.76725,19.42223 -26.71484,25.23047 -1.16299,0.70013 -2.32574,1.40067 -3.48828,2.10156 -6.25952,3.72705 -12.365,7.20285 -19.51172,8.89844 -1.2375,0.33 -2.475,0.66 -3.75,1 -6.60699,0.72222 -13.47832,-3.11416 -19.25,-6 -0.86238,0.60586 -1.72477,1.21172 -2.61328,1.83594 -22.19315,15.33575 -41.858,23.965 -69.19922,21.35156 -0.86617,-0.0821 -1.73234,-0.16419 -2.62476,-0.24878 -6.17528,-0.68042 -6.17528,-0.68042 -9.56274,-2.93872 0.89461,-0.0864 1.78922,-0.17273 2.71094,-0.26172 7.82272,-0.90904 14.72413,-2.16724 21.28906,-6.73828 0.66,-0.99 1.32,-1.98 2,-3 -0.5636,0.007 -1.1272,0.0133 -1.70787,0.0202 -5.95531,0.0672 -11.91051,0.11197 -17.8661,0.1446 -2.21196,0.0149 -4.42389,0.0353 -6.63575,0.0615 -32.65016,0.37716 -32.65016,0.37716 -43.91528,-5.72632 -1.95398,-1.08366 -1.95398,-1.08366 -3.875,-1.5 -2.05752,0.89236 -3.44211,2.06655 -5.125,3.54297 -4.48279,3.4835 -10.51796,4.84663 -16.125,4.33203 -8.45219,-1.97218 -14.339771,-6.77871 -19.148441,-13.96484 -2.26216,-4.1794 -2.76511,-7.09909 -2.60156,-11.91016 -1.18594,-0.4125 -2.37187,-0.825 -3.59375,-1.25 -8.28598,-2.93378 -16.4432,-6.00656 -24.34375,-9.875 -0.65484,-0.31195 -1.30969,-0.62391 -1.98437,-0.94531 -5.05764,-2.55544 -7.94911,-5.50231 -10.32813,-10.61719 -1.01176,-4.46862 -0.91224,-8.75183 -0.75,-13.3125 3,0 3,0 4.54297,1.53906 0.81404,1.03254 0.81404,1.03254 1.64453,2.08594 8.10251,9.57416 17.40211,13.82562 29.8125,15.375 -0.63164,-0.51047 -1.26328,-1.02094 -1.91406,-1.54688 -22.98688,-18.68097 -45.13281,-37.48728 -55.64844,-66.14062 -1.92801,-4.92272 -3.77648,-6.73977 -8.39453,-9.14844 C 9.9831292,221.041 5.3734392,205.53445 2.0384692,194.04003 c -5.83333,-21.77702 1.64541,-42.31697 12.3984398,-61.29687 2.05954,-3.54922 4.1907,-7.05245 6.32959,-10.5542 1.1939,-1.99787 2.32972,-4.01792 3.44775,-6.05908 0.52691,-0.95665 0.52691,-0.95665 1.06445,-1.93262 0.94278,-1.72235 1.877,-3.44939 2.81055,-5.17676 1.97671,-2.99167 3.97944,-4.78885 6.88672,-6.85547 0.99,0.495 0.99,0.495 2,1 -0.72445,0.92039 -1.44891,1.84078 -2.19531,2.78907 -13.12377,17.01617 -23.53367,41.47813 -24.8046898,63.21095 1.6475298,2.56685 1.6475298,2.56685 3.9999998,4 1.11228,3.33685 1.21434,6.11348 1.375,9.625 0.48353,8.54514 0.48353,8.54514 3.625,16.375 1.64684,1.03233 3.31257,2.03544 5,3 0.0198,-0.77714 0.0396,-1.55429 0.0601,-2.35498 0.095,-3.50703 0.20479,-7.01344 0.31494,-10.52002 0.0464,-1.83498 0.0464,-1.83498 0.0937,-3.70703 0.0387,-1.1666 0.0773,-2.3332 0.11719,-3.53516 0.0471,-1.61817 0.0471,-1.61817 0.0952,-3.26904 0.31887,-2.61377 0.31887,-2.61377 2.31887,-4.61377 0.13052,0.9013 0.26104,1.80259 0.39551,2.7312 0.49886,3.41015 1.00698,6.81868 1.52099,10.22656 0.21877,1.46269 0.43406,2.92589 0.64551,4.38965 2.22189,15.34791 4.51427,29.27563 16.96924,39.78931 4.5263,3.36064 7.79442,5.19716 13.46875,5.86328 1.39969,-3.11865 1.39969,-3.11865 -0.4375,-6.5625 -1.77356,-3.35818 -3.88104,-6.15147 -6.3125,-9.0625 -15.51115,-18.83291 -22.75756,-42.18926 -21.25,-66.375 2.94441,-20.30946 16.15354,-42.08489 32.26953,-54.78906 0.57106,-0.399609 1.14211,-0.799218 1.73047,-1.210937 -1.42513,3.092827 -3.19216,5.882987 -5.07129,8.718507 -12.43799,18.79868 -23.20694,42.90075 -19.30762,65.95337 3.25154,15.76899 11.5821,29.03352 19.8982,42.61572 7.95749,13.12741 7.95749,13.12741 7.79321,20.9624 -0.004,0.80953 -0.008,1.61906 -0.0117,2.45312 -0.33267,2.5404 -0.92358,4.14126 -2.30078,6.29688 -0.99,0.66 -1.98,1.32 -3,2 1.01423,7.24607 1.01423,7.24607 5,13 4.00848,0.72881 6.35995,-0.0355 9.75,-2.0625 1.0725,-0.63938 2.145,-1.27875 3.25,-1.9375 0.66,0.33 1.32,0.66 2,1 0.0928,1.67062 0.0928,1.67062 0.1875,3.375 1.11898,10.62087 11.18042,21.06075 19.140631,27.51172 8.09449,5.68542 15.9959,6.50953 25.67187,7.11328 0.0412,0.88687 0.0825,1.77375 0.125,2.6875 0.92808,3.51345 2.02203,5.17251 4.95313,7.33594 7.177,3.64685 15.45992,1.69309 22.92187,-0.0234 0.39188,1.05187 0.78375,2.10375 1.1875,3.1875 2.05121,4.73503 4.75513,7.85558 9.5,10.0625 6.86054,1.55333 13.47958,1.77421 20.5,1.625 7.2035,-0.0778 7.2035,-0.0778 10.625,1.625 8.72345,4.10515 19.45387,0.40687 28.1875,-2.5 6.56714,-2.68422 13.13373,-5.73917 18,-11 0.6735,-3.09149 0.6735,-3.09149 1,-6 -1.1202,-0.12117 -2.24039,-0.24234 -3.39453,-0.36719 -1.47271,-0.16884 -2.94536,-0.33814 -4.41797,-0.50781 -0.73799,-0.0786 -1.47598,-0.15727 -2.23633,-0.23828 -3.66625,-0.43136 -5.83071,-0.80644 -8.95119,-2.88676 -0.1875,-3.125 -0.1875,-3.125 0,-6 2.35945,-1.17973 3.87664,-1.15447 6.50781,-1.21094 0.90492,-0.0284 1.80985,-0.0567 2.74219,-0.0859 1.89305,-0.0514 3.7863,-0.0959 5.67969,-0.13281 5.99672,-0.20332 10.56993,-1.15018 16.07031,-3.57035 -1.49866,-3.33376 -3.43373,-5.93097 -5.75,-8.75 -3.5282,-4.33943 -6.93096,-8.74918 -10.25,-13.25 -1.04156,0.39832 -2.08313,0.79664 -3.15625,1.20703 -25.15638,9.39922 -51.05745,11.41611 -76.28125,0.60547 -22.86584,-10.44654 -39.57215,-28.52548 -48.5625,-51.8125 -2.97091,-8.45803 -5.12267,-16.96202 -5.13281,-25.95703 -10e-4,-1.11311 -0.003,-2.22621 -0.004,-3.37305 0.004,-1.1492 0.008,-2.2984 0.0117,-3.48242 -0.004,-1.1376 -0.008,-2.2752 -0.0117,-3.44727 0.007,-5.67501 0.20571,-11.19265 0.93164,-16.82055 0.28613,-2.67832 0.15429,-5.29603 0.0176,-7.98218 -0.0142,-5.59022 0.68977,-9.49952 4.1875,-13.9375 2.11553,-1.99706 4.31385,-3.85504 6.55078,-5.71484 3.72882,-3.47904 6.55291,-7.51809 9.50391,-11.64844 1.94538,-2.63672 1.94538,-2.63672 3.67585,-4.13672 1.91773,-2.26587 1.64351,-4.2692 1.70703,-7.1875 0.42783,-6.56794 1.51452,-11.34561 6.32422,-16.027341 6.08143,-4.88665 12.52359,-7.320819 20.23828,-8.285156 -0.087,-0.978398 -0.087,-0.978398 -0.17578,-1.976563 -0.41505,-8.040112 -0.41505,-8.040112 2.17578,-11.523437 5.07987,-4.233227 10.35665,-4.885261 16.92187,-4.691406 5.93308,0.546467 11.15192,1.695389 16.07813,5.191406 0.31969,-0.484687 0.63937,-0.969375 0.96875,-1.46875 11.0892,-14.710161 32.31672,-18.053554 49.43652,-20.581787 17.832,-2.298622 41.14057,-4.525218 55.59473,8.050537 z"
     style="fill:#385393"
     id="path4" />
  <path
     d="m 302.97597,61.165053 c 3.14289,3.221467 4.48799,5.519912 5,10 -0.5543,-0.421523 -1.10859,-0.843047 -1.67969,-1.277344 -0.72445,-0.547851 -1.4489,-1.095703 -2.19531,-1.660156 -0.7193,-0.545273 -1.43859,-1.090547 -2.17969,-1.652344 -4.10847,-2.978231 -8.01816,-3.06758 -12.94531,-2.410156 -4.83443,1.639089 -9.4373,3.718652 -14,6 0.81984,0.375117 1.63969,0.750235 2.48437,1.136719 1.07766,0.511758 2.15532,1.023515 3.26563,1.550781 1.06734,0.498867 2.13469,0.997734 3.23437,1.511719 3.79498,2.266169 6.04558,4.860684 8.01563,8.800781 0.44145,5.628538 -0.57798,9.055043 -3,14 0.79922,0.146953 1.59844,0.293906 2.42187,0.445312 17.38012,3.549465 28.85897,12.766195 41.57813,24.554685 0.57492,0.52078 1.14984,1.04157 1.74219,1.57813 1.38281,1.29687 1.38281,1.29687 3.25781,3.42187 0,0.99 0,1.98 0,3 -5.41858,0.22578 -9.77488,-0.5333 -15,-2 -0.13535,0.62391 -0.2707,1.24782 -0.41016,1.89063 -0.69754,2.49453 -1.58434,3.50497 -3.58984,5.10937 -0.66,0 -1.32,0 -2,0 3.26721,4.38895 6.54898,8.7526 10,13 0.66,-2.31 1.32,-4.62 2,-7 1.32,-0.33 2.64,-0.66 4,-1 4.98104,5.96053 8.81433,11.88831 12.0625,18.9375 0.42265,0.90662 0.8453,1.81323 1.28076,2.74731 10.86708,23.80833 10.86708,23.80833 9.65674,36.31519 -1.65,0.33 -3.3,0.66 -5,1 -1.65,-1.98 -3.3,-3.96 -5,-6 0,2.88774 0.36379,5.36274 0.875,8.19922 5.41383,31.02292 5.41383,31.02292 1.78516,38.59765 -1.66016,2.20313 -1.66016,2.20313 -4.66016,4.20313 -0.99,0 -1.98,0 -3,0 -0.0699,0.62866 -0.13986,1.25732 -0.21191,1.90503 -3.82819,33.64433 -3.82819,33.64433 -13.35059,42.46997 -4.83262,2.28451 -9.18111,1.96171 -14.4375,1.625 -0.165,0.80437 -0.33,1.60875 -0.5,2.4375 -3.93163,9.33762 -12.34131,15.05838 -20.5,20.5625 1.155,-0.495 2.31,-0.99 3.5,-1.5 4.35283,-1.65563 7.87522,-1.74776 12.5,-1.5 0.67187,1.77734 0.67187,1.77734 1,4 -1.10938,1.81641 -1.10938,1.81641 -2.75,3.5625 -0.53109,0.57879 -1.06219,1.15758 -1.60938,1.75391 -1.53422,1.5744 -3.07914,3.13622 -4.64062,4.68359 10.02547,-4.19577 14.96542,-9.54616 20.5,-18.75 3.00986,-4.85484 5.14712,-7.20617 10.5,-9.25 3.24365,-0.43665 5.03442,-0.49837 7.9375,1 1.40513,2.64495 1.10952,4.84991 0.77734,7.76953 -3.71703,11.59795 -16.76725,19.42223 -26.71484,25.23047 -1.16299,0.70013 -2.32574,1.40067 -3.48828,2.10156 -6.25952,3.72705 -12.365,7.20285 -19.51172,8.89844 -1.2375,0.33 -2.475,0.66 -3.75,1 -6.60699,0.72222 -13.47832,-3.11416 -19.25,-6 -0.86238,0.60586 -1.72477,1.21172 -2.61328,1.83594 -22.19315,15.33575 -41.858,23.965 -69.19922,21.35156 -0.86617,-0.0821 -1.73234,-0.16419 -2.62476,-0.24878 -6.17528,-0.68042 -6.17528,-0.68042 -9.56274,-2.93872 0.89461,-0.0864 1.78922,-0.17273 2.71094,-0.26172 7.82272,-0.90904 14.72413,-2.16724 21.28906,-6.73828 0.66,-0.99 1.32,-1.98 2,-3 -0.5636,0.007 -1.1272,0.0133 -1.70787,0.0202 -5.95531,0.0672 -11.91051,0.11197 -17.8661,0.1446 -2.21196,0.0149 -4.42389,0.0353 -6.63575,0.0615 -32.65016,0.37716 -32.65016,0.37716 -43.91528,-5.72632 -1.95398,-1.08366 -1.95398,-1.08366 -3.875,-1.5 -2.05752,0.89236 -3.44211,2.06655 -5.125,3.54297 -4.48279,3.4835 -10.51796,4.84663 -16.125,4.33203 -8.45219,-1.97218 -14.339771,-6.77871 -19.148441,-13.96484 -2.26216,-4.1794 -2.76511,-7.09909 -2.60156,-11.91016 -1.18594,-0.4125 -2.37187,-0.825 -3.59375,-1.25 -8.28598,-2.93378 -16.4432,-6.00656 -24.34375,-9.875 -0.65484,-0.31195 -1.30969,-0.62391 -1.98437,-0.94531 -5.05764,-2.55544 -7.94911,-5.50231 -10.32813,-10.61719 -1.01176,-4.46862 -0.91224,-8.75183 -0.75,-13.3125 3,0 3,0 4.54297,1.53906 0.81404,1.03254 0.81404,1.03254 1.64453,2.08594 8.10251,9.57416 17.40211,13.82562 29.8125,15.375 -0.63164,-0.51047 -1.26328,-1.02094 -1.91406,-1.54688 -22.98688,-18.68097 -45.13281,-37.48728 -55.64844,-66.14062 -1.92801,-4.92272 -3.77648,-6.73977 -8.39453,-9.14844 C 9.9831292,221.041 5.3734392,205.53445 2.0384692,194.04003 c -5.83333,-21.77702 1.64541,-42.31697 12.3984398,-61.29687 2.05954,-3.54922 4.1907,-7.05245 6.32959,-10.5542 1.1939,-1.99787 2.32972,-4.01792 3.44775,-6.05908 0.52691,-0.95665 0.52691,-0.95665 1.06445,-1.93262 0.94278,-1.72235 1.877,-3.44939 2.81055,-5.17676 1.97671,-2.99167 3.97944,-4.78885 6.88672,-6.85547 0.99,0.495 0.99,0.495 2,1 -0.72445,0.92039 -1.44891,1.84078 -2.19531,2.78907 -13.12377,17.01617 -23.53367,41.47813 -24.8046898,63.21095 1.6475298,2.56685 1.6475298,2.56685 3.9999998,4 1.11228,3.33685 1.21434,6.11348 1.375,9.625 0.48353,8.54514 0.48353,8.54514 3.625,16.375 1.64684,1.03233 3.31257,2.03544 5,3 0.0198,-0.77714 0.0396,-1.55429 0.0601,-2.35498 0.095,-3.50703 0.20479,-7.01344 0.31494,-10.52002 0.0464,-1.83498 0.0464,-1.83498 0.0937,-3.70703 0.0387,-1.1666 0.0773,-2.3332 0.11719,-3.53516 0.0471,-1.61817 0.0471,-1.61817 0.0952,-3.26904 0.31887,-2.61377 0.31887,-2.61377 2.31887,-4.61377 0.13052,0.9013 0.26104,1.80259 0.39551,2.7312 0.49886,3.41015 1.00698,6.81868 1.52099,10.22656 0.21877,1.46269 0.43406,2.92589 0.64551,4.38965 2.22189,15.34791 4.51427,29.27563 16.96924,39.78931 4.5263,3.36064 7.79442,5.19716 13.46875,5.86328 1.39969,-3.11865 1.39969,-3.11865 -0.4375,-6.5625 -1.77356,-3.35818 -3.88104,-6.15147 -6.3125,-9.0625 -15.51115,-18.83291 -22.75756,-42.18926 -21.25,-66.375 2.94441,-20.30946 16.15354,-42.08489 32.26953,-54.78906 0.57106,-0.399609 1.14211,-0.799218 1.73047,-1.210937 -1.42513,3.092827 -3.19216,5.882987 -5.07129,8.718507 -12.43799,18.79868 -23.20694,42.90075 -19.30762,65.95337 3.25154,15.76899 11.5821,29.03352 19.8982,42.61572 7.95749,13.12741 7.95749,13.12741 7.79321,20.9624 -0.004,0.80953 -0.008,1.61906 -0.0117,2.45312 -0.33267,2.5404 -0.92358,4.14126 -2.30078,6.29688 -0.99,0.66 -1.98,1.32 -3,2 1.01423,7.24607 1.01423,7.24607 5,13 4.00848,0.72881 6.35995,-0.0355 9.75,-2.0625 1.0725,-0.63938 2.145,-1.27875 3.25,-1.9375 0.66,0.33 1.32,0.66 2,1 0.0928,1.67062 0.0928,1.67062 0.1875,3.375 1.11898,10.62087 11.18042,21.06075 19.140631,27.51172 8.09449,5.68542 15.9959,6.50953 25.67187,7.11328 0.0412,0.88687 0.0825,1.77375 0.125,2.6875 0.92808,3.51345 2.02203,5.17251 4.95313,7.33594 7.177,3.64685 15.45992,1.69309 22.92187,-0.0234 0.39188,1.05187 0.78375,2.10375 1.1875,3.1875 2.05121,4.73503 4.75513,7.85558 9.5,10.0625 6.86054,1.55333 13.47958,1.77421 20.5,1.625 7.2035,-0.0778 7.2035,-0.0778 10.625,1.625 8.72345,4.10515 19.45387,0.40687 28.1875,-2.5 6.56714,-2.68422 13.13373,-5.73917 18,-11 0.6735,-3.09149 0.6735,-3.09149 1,-6 -1.1202,-0.12117 -2.24039,-0.24234 -3.39453,-0.36719 -1.47271,-0.16884 -2.94536,-0.33814 -4.41797,-0.50781 -0.73799,-0.0786 -1.47598,-0.15727 -2.23633,-0.23828 -3.66625,-0.43136 -5.83071,-0.80644 -8.95119,-2.88676 -0.1875,-3.125 -0.1875,-3.125 0,-6 2.35927,-1.17963 3.84241,-1.13951 6.47266,-1.17578 0.90041,-0.0239 1.80082,-0.0477 2.72851,-0.0723 1.87999,-0.0423 3.76026,-0.0739 5.64063,-0.0937 7.80551,-0.23787 13.84467,-2.06501 20.0332,-6.9082 2.67272,-3.45881 3.74505,-6.61014 5.125,-10.75 1,-1 1,-1 3.5625,-1.1875 3.4375,0.18748 3.4375,0.18748 7.25,1.37498 4.9421,1.30403 8.76553,0.2573 13.1875,-2.1875 8.59656,-6.90012 10.34777,-17.48768 11.49316,-27.81812 0.17826,-1.72635 0.34391,-3.45401 0.50684,-5.18188 -2.97,0.33 -5.94,0.66 -9,1 0.43312,-1.36125 0.86625,-2.7225 1.3125,-4.125 5.7209,-19.01119 5.7209,-19.01119 1.6875,-37.875 -1.71036,-2.16142 -1.71036,-2.16142 -4,-3 -1.66625,-0.0371 -3.33384,-0.0412 -5,0 -0.9835,-2.08129 -1.96165,-4.16511 -2.9375,-6.25 -0.81791,-1.74023 -0.81791,-1.74023 -1.65234,-3.51562 -2.31652,-5.31323 -2.8681,-9.46439 -2.41016,-15.23438 1.75959,-2.44812 3.11322,-2.83394 6.02344,-3.37891 4.17446,-0.33481 7.25241,0.0494 10.66406,2.56641 12.46235,12.40492 16.57097,36.71642 16.63599,53.52832 -0.0847,7.02494 -1.1477,12.86326 -3.24146,19.58105 -1.42619,4.88098 -2.24336,9.79213 -3.04224,14.80762 -0.54092,3.32348 -1.20813,6.47727 -2.14526,9.71582 -0.92372,3.28344 -0.93245,4.97159 0.10547,8.17969 0.33,0.33 0.66,0.66 1,1 -0.0902,2.1905 -0.24666,4.37847 -0.4375,6.5625 -0.10184,1.19754 -0.20367,2.39508 -0.30859,3.62891 -0.12569,1.39025 -0.12569,1.39025 -0.25391,2.80859 3.26035,-2.66489 4.56686,-6.14394 6.125,-9.9375 0.26426,-0.62068 0.52851,-1.24137 0.80078,-1.88086 2.46397,-5.87225 3.11041,-10.06293 3.19922,-16.43164 0.25847,-7.1776 2.11276,-12.78908 5.34814,-19.16895 2.31031,-4.61093 3.34534,-8.3863 3.52686,-13.58105 -0.84486,-2.44315 -0.84486,-2.44315 -2.375,-4.3125 -4.07449,-5.61096 -4.33841,-10.87593 -3.625,-17.6875 1.75,-3.375 1.75,-3.375 4,-6 4.54589,-5.58495 5.4799,-9.33958 5.40234,-16.49219 -1.99665,-17.40767 -14.88975,-36.83267 -28.13086,-47.96044 -9.19417,-7.23327 -9.19417,-7.23327 -20.27148,-9.73487 -0.63938,0.006 -1.27875,0.0129 -1.9375,0.0195 -2.40639,0.19598 -4.70488,0.65634 -7.0625,1.16797 -0.4009,-0.48468 -0.8018,-0.96937 -1.21484,-1.46875 -13.75807,-16.22266 -34.04603,-29.727362 -55.78516,-31.531247 -27.31461,-1.328672 -52.71497,2.462757 -73.875,21.062497 -0.59555,0.56848 -1.19109,1.13696 -1.80469,1.72266 -1.32031,1.21484 -1.32031,1.21484 -2.32031,1.21484 -0.44487,-7.41454 -0.81147,-13.95862 4,-19.999997 6.21647,-6.037682 13.481,-8.935125 22,-10 -0.087,-0.978398 -0.087,-0.978398 -0.17578,-1.976563 -0.41505,-8.040112 -0.41505,-8.040112 2.17578,-11.523437 5.07987,-4.233227 10.35665,-4.885261 16.92187,-4.691406 5.93308,0.546467 11.15192,1.695389 16.07813,5.191406 0.31969,-0.484687 0.63937,-0.969375 0.96875,-1.46875 11.0892,-14.710161 32.31672,-18.053554 49.43652,-20.581787 17.832,-2.298622 41.14057,-4.525218 55.59473,8.050537 z"
     style="fill:#e0c37f"
     id="path6" />
  <path
     d="m 229.97597,140.16505 c 11.13936,8.32323 18.47298,18.94628 20.58203,32.83203 1.81386,16.47218 -0.098,31.58695 -10.58203,45.16797 -5.84456,6.32063 -12.07917,10.68523 -20,14 -0.77731,0.35192 -1.55461,0.70383 -2.35547,1.06641 -11.11917,3.92538 -27.05426,3.60268 -37.94141,-0.74609 -15.25335,-7.45034 -23.53247,-17.99152 -29.58203,-33.58594 -3.69536,-13.12758 -1.71065,-28.46267 4.23438,-40.47266 7.07934,-12.50747 17.07643,-21.3531 30.99609,-25.60937 15.82398,-2.82934 30.82338,-0.99014 44.64844,7.34765 z"
     style="fill:#fdfdfe"
     id="path8" />
  <path
     d="m 333.97597,80.165053 c 6.2474,2.369703 9.32194,6.489168 13.30078,11.757813 1.65239,2.28634 1.65239,2.28634 3.69922,4.242187 3.89579,-0.307562 6.00292,-1.602336 9,-4 4.68934,-1.563115 8.51755,-1.523216 13.1875,0.125 4.08848,2.725651 6.35029,5.714865 7.38672,10.558597 0.58725,4.5741 0.80848,9.14226 1.03125,13.74609 0.14514,3.91347 0.14514,3.91347 1.39453,7.57031 1.485,0.495 1.485,0.495 3,1 4.36772,11.43859 0.62969,24.95123 -1.30078,36.69532 -2.42304,14.77895 -2.00065,29.43125 -0.69922,44.30468 -2.68976,-1.34488 -2.71099,-2.48864 -3.65625,-5.30469 -0.29963,-0.88824 -0.59925,-1.77649 -0.90796,-2.69165 -0.30881,-0.94996 -0.61762,-1.89991 -0.93579,-2.87866 -0.47192,-1.44331 -0.47192,-1.44331 -0.95337,-2.91577 -4.65297,-14.50385 -5.41049,-27.3051 -3.08276,-42.33471 0.5939,-4.22142 0.92811,-7.24858 -1.46387,-10.87452 -2.25503,-1.47444 -4.35784,-2.68353 -6.75,-3.875 -5.60113,-2.97724 -9.60046,-5.92274 -13.25,-11.125 -2.49598,-3.09846 -4.32475,-4.18964 -8.0625,-5.25 -11.02508,-3.38537 -21.10059,-12.86972 -26.65625,-22.832028 -1.60146,-3.647228 -1.85494,-5.973836 -1.28125,-9.917969 5.12637,-6.205612 9.27554,-6.780601 17,-6 z"
     style="fill:#e1c47e"
     id="path10" />
  <path
     d="m 283.97597,125.16505 c 19.09011,6.51087 31.46508,24.73461 40,42 3.94493,8.23091 6.4722,15.80213 5,25 -1.67257,4.62717 -4.88975,8.24625 -8,12 -1.99601,3.99202 -1.52121,8.66215 -1,13 1.06909,2.74027 2.32107,5.17664 3.80859,7.71094 2.0577,3.95348 2.46415,6.26627 1.30078,10.6289 -0.44859,1.18723 -0.89718,2.37446 -1.35937,3.59766 -0.43828,1.18465 -0.87656,2.3693 -1.32813,3.58984 -1.42187,3.47266 -1.42187,3.47266 -3.07031,6.44141 -1.64991,3.70037 -1.68644,6.55411 -1.72656,10.59375 -0.25701,7.86524 -2.25809,14.29497 -5.625,21.4375 -0.46664,1.0493 -0.93328,2.09859 -1.41406,3.17969 -1.5904,2.82825 -2.86182,4.12948 -5.58594,5.82031 0.14309,-1.48113 0.14309,-1.48113 0.28906,-2.99219 0.11086,-1.28133 0.22172,-2.56265 0.33594,-3.88281 0.11602,-1.27617 0.23203,-2.55234 0.35156,-3.86719 0.008,-1.07508 0.0155,-2.15015 0.0234,-3.25781 -0.99,-0.99 -0.99,-0.99 -2,-2 0.37011,-5.55161 1.89582,-10.9156 3.17578,-16.31641 1.1841,-5.29197 2.13125,-10.61815 3.07813,-15.95703 0.74609,-3.72656 0.74609,-3.72656 1.80468,-7.10156 5.07429,-19.53915 -1.71024,-42.28376 -11.11718,-59.57031 -1.87499,-3.0204 -3.88311,-5.23882 -6.94141,-7.05469 -0.65484,-0.0335 -1.30969,-0.067 -1.98438,-0.10156 -0.99773,-0.44473 -0.99773,-0.44473 -2.01562,-0.89844 -0.94649,-2.55982 -1.62915,-4.92209 -2.25,-7.5625 -3.09112,-11.76652 -8.70281,-21.95929 -14.75,-32.4375 3.77866,-2.5191 6.6332,-2.69809 11,-2 z"
     style="fill:#ffffff"
     id="path12" />
  <path
     d="m 332.97597,314.16505 c 3.95063,1.31688 5.46266,3.8537 7.875,7.0625 0.97385,1.26932 1.94917,2.5375 2.92578,3.80469 0.51514,0.66999 1.03028,1.33998 1.56104,2.03027 3.38811,4.34851 6.90158,8.5967 10.39746,12.85865 0.52416,0.64123 1.04833,1.28245 1.58838,1.94311 0.69621,0.84825 0.69621,0.84825 1.40649,1.71363 3.17531,4.0452 3.17531,4.0452 3.56616,7.04809 -0.93864,7.44049 -11.69355,13.34466 -17.30713,17.77002 -8.74854,6.77883 -8.74854,6.77883 -12.53662,6.74951 -8.44875,-3.34485 -15.26421,-15.38469 -20.78125,-22.52734 -3.25913,-4.20884 -6.67841,-8.27725 -10.11328,-12.34375 -1.58203,-2.10938 -1.58203,-2.10938 -1.58203,-4.10938 1.06477,-0.52207 2.12953,-1.04414 3.22656,-1.58203 10.93144,-5.49545 21.06537,-11.70989 29.77344,-20.41797 z"
     style="fill:#203d81"
     id="path14" />
  <path
     d="m 302.97597,241.16505 c 2,1 2,1 2.60547,2.77344 1.4313,8.07762 0.42231,15.04914 -3.60547,22.22656 -2.14557,2.87214 -4.47284,5.46111 -7,8 -0.52465,0.56848 -1.0493,1.13696 -1.58984,1.72266 -1.41016,1.27734 -1.41016,1.27734 -3.41016,1.27734 0,0.66 0,1.32 0,2 1.65,0.33 3.3,0.66 5,1 -0.56053,3.97881 -2.51262,6.02964 -5.1875,8.9375 -0.75668,0.83403 -1.51336,1.66805 -2.29297,2.52735 -7.99717,8.04677 -7.99717,8.04677 -14.63672,8.28125 -0.70383,0.001 -1.40765,0.003 -2.13281,0.004 -5.02875,-0.1032 -5.02875,-0.1032 -9.75,1.25 0.21656,0.83531 0.21656,0.83531 0.4375,1.6875 0.27844,1.14469 0.27844,1.14469 0.5625,2.3125 0.40219,1.17562 0.40219,1.17562 0.8125,2.375 0.28799,4.03183 -1.22232,5.5926 -3.8125,8.625 -13.59474,11.74725 -39.50363,14.97554 -56.84375,14.60547 -3.49355,-0.67017 -4.58641,-1.27094 -6.65625,-4.10547 -0.495,-1.155 -0.99,-2.31 -1.5,-3.5 0.495,-0.99 0.495,-0.99 1,-2 0.96937,0.495 1.93875,0.99 2.9375,1.5 10.24422,4.2481 22.72036,0.0922 32.55078,-3.92578 5.35471,-2.58066 10.4518,-5.18511 14.51172,-9.57422 0.6735,-3.09148 0.6735,-3.09148 1,-6 -1.68029,-0.18175 -1.68029,-0.18175 -3.39453,-0.36718 -1.47271,-0.16885 -2.94536,-0.33814 -4.41797,-0.50782 -0.73799,-0.0786 -1.47598,-0.15726 -2.23633,-0.23828 -3.66623,-0.43132 -5.83069,-0.80639 -8.95117,-2.88672 -0.1875,-3.125 -0.1875,-3.125 0,-6 2.35927,-1.17963 3.84241,-1.1395 6.47266,-1.17578 0.90041,-0.0238 1.80082,-0.0477 2.72851,-0.0723 1.87999,-0.0423 3.76026,-0.0739 5.64063,-0.0937 7.80551,-0.23787 13.84467,-2.065 20.0332,-6.9082 2.67272,-3.45881 3.74505,-6.61013 5.125,-10.75 1,-1 1,-1 3.5625,-1.1875 3.4375,0.1875 3.4375,0.1875 7.25,1.375 4.9421,1.30404 8.76553,0.2573 13.1875,-2.1875 9.39735,-7.54288 10.77163,-19.78307 12,-31 z"
     style="fill:#c8ab67"
     id="path16" />
  <path
     d="m 290.97597,194.16505 c 3.54845,0.98568 4.9112,1.88901 7.25,4.8125 5.33554,9.71831 2.48918,21.02158 -0.25,31.1875 -1.1951,3.42254 -2.54005,6.67737 -4,10 4.455,-0.495 4.455,-0.495 9,-1 0.42654,9.6683 -0.62798,18.73882 -6,27 -4.35926,-1.54814 -6.57525,-4.93835 -9.25,-8.5 -0.96791,-1.26887 -1.93667,-2.53709 -2.90625,-3.80468 -0.47695,-0.62617 -0.95391,-1.25233 -1.44531,-1.89746 -2.59278,-3.33332 -5.36708,-6.52152 -8.13282,-9.71192 -1.26562,-2.08594 -1.26562,-2.08594 -1.19921,-3.97656 1.29006,-2.9148 2.94036,-5.52601 4.62109,-8.23438 6.515,-10.94942 10.2895,-23.3324 12.3125,-35.875 z"
     style="fill:#ffffff"
     id="path18" />
  <path
     d="m 104.97597,128.16505 c 0.66,0.33 1.32,0.66 2,1 -0.49371,1.19496 -0.98742,2.38993 -1.49609,3.6211 -0.64773,1.60523 -1.29483,3.21071 -1.94141,4.8164 -0.32549,0.78311 -0.65098,1.56621 -0.98633,2.37305 -2.785812,6.97889 -4.971274,13.97676 -2.07617,21.25195 1.65712,4.7914 1.50634,7.99729 0.5,12.9375 -2.640001,-0.33 -5.280001,-0.66 -8.000001,-1 -0.769561,2.34534 -0.769561,2.34534 -1,5 2.086326,2.59602 4.675643,4.10377 7.5,5.8125 3.930131,2.58814 6.054551,4.56207 7.500001,9.1875 0.42548,3.4748 0.22626,5.4595 -1.125,8.6875 -2.75546,3.39841 -5.55595,4.9461 -9.902345,5.63282 -3.571608,0.19953 -5.550549,0.004 -8.410156,-2.19532 -2.207037,-3.00157 -2.692295,-4.6566 -2.739502,-8.32422 -0.01283,-0.8685 -0.02567,-1.73701 -0.03889,-2.63183 -0.0074,-0.94263 -0.01477,-1.88526 -0.02238,-2.85645 -0.0081,-0.97227 -0.01614,-1.94455 -0.02446,-2.94629 -0.01385,-2.06459 -0.02457,-4.12921 -0.03242,-6.19384 -0.01711,-3.13213 -0.06098,-6.26318 -0.105225,-9.39502 -0.01014,-2.00911 -0.01865,-4.01823 -0.02539,-6.02735 -0.01751,-0.92643 -0.03502,-1.85286 -0.05306,-2.80737 0.02989,-9.12975 2.798073,-16.67879 8.791336,-23.63013 0.778594,-0.9075 1.557187,-1.815 2.359375,-2.75 3.002047,-3.30427 6.078607,-6.50106 9.328117,-9.5625 z"
     style="fill:#e0c47e"
     id="path20" />
  <path
     d="m 116.97597,16.165053 c 0,0.66 0,1.32 0,2 -0.83402,0.219141 -1.66805,0.438281 -2.52734,0.664063 -11.72602,3.304237 -20.387239,8.209865 -27.472661,18.335937 -1.765248,3.167247 -3.312018,6.436775 -4.864014,9.712402 -2.986769,6.227425 -6.634504,11.790722 -10.546142,17.467285 -3.228633,4.696417 -6.1807,9.563538 -9.103028,14.455079 -2.451176,4.014946 -5.028048,7.169699 -8.486816,10.365234 -0.99,-0.33 -1.98,-0.66 -3,-1 0.41779,-5.709795 2.575466,-8.609571 6,-13 -5.994275,3.759996 -5.994275,3.759996 -11.3125,8.375 -1.6875,1.625 -1.6875,1.625 -5.6875,1.625 -0.50201,-4.919703 -0.06434,-8.222813 3.0625,-12.175781 5.861798,-5.519072 13.301313,-9.180979 20.6875,-12.199219 2.432541,-1.054386 2.432541,-1.054386 4.25,-2.625 0.764868,-2.520895 0.81265,-4.701988 0.839844,-7.332031 0.606049,-10.095896 9.260402,-18.054908 16.160156,-24.667969 8.909971,-7.707587 20.334531,-10.947984 32.000001,-10 z"
     style="fill:#e1c47f"
     id="path22" />
  <path
     d="m 194.53847,73.602553 c 1.4375,1.5625 1.4375,1.5625 1.4375,4.5625 -1.41152,0.03867 -1.41152,0.03867 -2.85156,0.07813 -7.70026,0.133198 -7.70026,0.133198 -15.02344,2.171875 -3.59074,4.646843 -2.56588,10.100166 -2.125,15.75 -0.98098,0.328711 -1.96195,0.657422 -2.97266,0.996094 -12.84648,4.464503 -24.77688,10.310283 -34.70703,19.789063 -1.32031,1.21484 -1.32031,1.21484 -2.32031,1.21484 -0.44487,-7.41454 -0.81147,-13.95862 4,-19.999997 6.21647,-6.037682 13.481,-8.935125 22,-10 -0.058,-0.652266 -0.11602,-1.304531 -0.17578,-1.976562 -0.41505,-8.040113 -0.41505,-8.040113 2.17578,-11.523438 8.07124,-6.72603 21.62413,-6.076706 30.5625,-1.0625 z"
     style="fill:#c8ab67"
     id="path24" />
  <path
     d="m 377.35097,228.79005 c 1.19625,0.12375 2.3925,0.2475 3.625,0.375 4.31631,5.4053 3.58256,11.42871 3,18 -1.0073,4.81038 -2.1363,8.77549 -6,12 -0.99,0.33 -1.98,0.66 -3,1 -0.0748,0.66387 -0.14953,1.32774 -0.22656,2.01172 -0.19723,1.32451 -0.19723,1.32451 -0.39844,2.67578 -0.11602,0.87012 -0.23203,1.74024 -0.35156,2.63672 -1.6405,4.28908 -4.82912,6.60016 -8.83887,8.56568 -1.89981,0.78005 -3.80998,1.49064 -5.74707,2.1726 -5.72947,2.0393 -10.99639,3.91803 -13.75,9.6875 -0.22688,0.7425 -0.45375,1.485 -0.6875,2.25 -0.99,-0.66 -1.98,-1.32 -3,-2 1.35585,-3.03737 2.87293,-5.11932 5.25,-7.4375 0.62391,-0.61101 1.24781,-1.22203 1.89062,-1.85156 1.85938,-1.71094 1.85938,-1.71094 4.85938,-4.02344 12.1481,-10.08034 16.09892,-26.76914 18.45703,-41.65234 0.70521,-3.94207 0.70521,-3.94207 4.91797,-4.41016 z"
     style="fill:#e1c47f"
     id="path26" />
  <path
     d="m 247.85097,75.040053 c 1.15242,0.01805 2.30484,0.03609 3.49219,0.05469 0.86882,0.0232 1.73765,0.04641 2.63281,0.07031 -0.825,0.61875 -1.65,1.2375 -2.5,1.875 -0.825,0.70125 -1.65,1.4025 -2.5,2.125 0,0.66 0,1.32 0,2 3.465,1.485 3.465,1.485 7,3 -0.52594,0.99 -0.52594,0.99 -1.0625,2 -1.30156,4.16499 -0.83491,6.72004 0.0625,11 2.266,3.081477 4.50239,3.565337 8.1875,4.187497 1.35158,0.23784 1.35158,0.23784 2.73047,0.48047 0.68707,0.10957 1.37414,0.21914 2.08203,0.33203 -3.86492,2.11811 -6.5598,2.38278 -11,2 -4.6046,-1.71543 -7.4681,-3.7464 -10,-7.999997 0.25,-2.8125 0.25,-2.8125 1,-5 0.99,-0.33 1.98,-0.66 3,-1 -5.06377,0 -9.57672,1.197161 -14.49219,2.34375 -8.19303,1.532772 -8.19303,1.532772 -12.50781,-1.34375 1.01563,-5.803624 4.30998,-8.524056 8.51562,-12.265625 4.9413,-3.449582 9.43171,-3.980348 15.35938,-3.859375 z"
     style="fill:#ffffff"
     id="path28" />
  <path
     d="m 171.97597,0.16505314 c 0,0.33 0,0.66 0,0.99999996 -1.4676,0.1295508 -1.4676,0.1295508 -2.96484,0.2617187 -10.59083,1.1351031 -18.98179,3.1999952 -26.03516,11.7382812 -1.03036,1.681701 -2.04993,3.370028 -3.0625,5.0625 -9.9557,15.963456 -28.20156,29.807959 -45.937501,35.9375 -1.32,0 -2.64,0 -4,0 0.250996,-3.68127 0.458565,-5.478112 3.164063,-8.085938 3.035049,-2.048449 5.489889,-2.885231 9.023438,-3.789062 14.45654,-4.209691 23.03185,-12.725761 30.85547,-25.292969 5.87141,-8.4965592 14.0516,-13.9587793 24.02734,-16.37499961 4.97908,-0.77673681 9.90774,-0.69366756 14.92969,-0.45703125 z"
     style="fill:#e1c47f"
     id="path30" />
  <path
     d="m 312.97597,290.16505 c 3.67057,1.47798 5.41086,3.47616 7.75,6.625 0.92039,1.2259 0.92039,1.2259 1.85937,2.47657 0.68836,0.93972 0.68836,0.93972 1.39063,1.89843 -12.23913,20.23735 -12.23913,20.23735 -24,24 -0.99,-0.33 -1.98,-0.66 -3,-1 0.62648,-0.4705 1.25297,-0.94101 1.89844,-1.42578 0.81726,-0.62261 1.63453,-1.24523 2.47656,-1.88672 1.21816,-0.92232 1.21816,-0.92232 2.46094,-1.86328 2.36185,-1.81902 2.36185,-1.81902 4.16406,-4.82422 0,-0.99 0,-1.98 0,-3 -6.33393,-0.34548 -11.10262,0.70658 -17,3 3.09513,-3.30147 6.32092,-6.02256 9.9375,-8.75 5.43238,-4.26482 8.98906,-9.10312 12.0625,-15.25 z"
     style="fill:#2a4486"
     id="path32" />
  <path
     d="m 97.975969,303.16505 c 2.746351,0.89071 5.473691,1.78334 8.144531,2.88282 7.05579,2.82231 14.105,4.26088 21.59815,5.3706 9.16684,1.57069 15.13548,7.01256 21.25732,13.74658 0,0.66 0,1.32 0,2 -16.76742,-1.66992 -37.44531,-7.97891 -48.8125,-21 -0.721876,-0.99 -1.443751,-1.98 -2.187501,-3 z"
     style="fill:#ffffff"
     id="path34" />
  <path
     d="m 238.97597,366.16505 c 1,3 1,3 -0.3125,5.625 -1.6875,2.375 -1.6875,2.375 -3.6875,3.375 -8.8559,0.99505 -15.26026,-0.734 -23,-5 0,-0.33 0,-0.66 0,-1 3.37398,-0.50704 6.74933,-1.00436 10.125,-1.5 0.95133,-0.14308 1.90266,-0.28617 2.88281,-0.43359 4.70414,-0.68602 9.22261,-1.25912 13.99219,-1.06641 z"
     style="fill:#e1c47f"
     id="path36" />
  <path
     d="m 103.96425,218.01271 c 4.27299,0.39499 6.57287,0.83638 10.13672,3.40235 1.875,2.75 1.875,2.75 1.49219,5.42187 -0.20368,0.76828 -0.40735,1.53656 -0.61719,2.32813 -1.74922,0.0814 -3.49955,0.13938 -5.25,0.1875 -1.4618,0.0522 -1.4618,0.0522 -2.95313,0.10547 -3.2175,-0.33703 -4.5348,-1.00966 -6.796872,-3.29297 -0.375,-3.0625 -0.375,-3.0625 0,-6 2.000002,-2 2.000002,-2 3.988282,-2.15235 z"
     style="fill:#e0c47f"
     id="path38" />
  <path
     d="m 389.97597,206.16505 c 2.97407,-0.32152 4.45783,-0.41566 6.875,1.4375 1.68857,3.84618 1.28971,7.55972 0.125,11.5625 -1.39453,1.78907 -1.39453,1.78907 -3,3 -3.34193,-0.24453 -4.60544,-0.60543 -7,-3 -0.50443,-5.24601 0.35035,-8.47351 3,-13 z"
     style="fill:#e1c47f"
     id="path40" />
  <path
     d="m 121.97597,134.16505 c 0,3.04604 -0.37082,4.11912 -1.67969,6.76563 -0.35191,0.72574 -0.70383,1.45148 -1.0664,2.19922 -0.37254,0.7541 -0.74508,1.5082 -1.12891,2.28515 -2.56511,5.19367 -4.71052,10.12187 -6.125,15.75 -0.66,0 -1.32,0 -2,0 -0.4475,-7.45839 -0.75877,-13.89465 4,-20 2.52916,-2.52434 5.17898,-4.80891 8,-7 z"
     style="fill:#c4a96a"
     id="path42" />
  <path
     d="m 300.97597,305.16505 c 0.66,0.33 1.32,0.66 2,1 -3.29892,4.71274 -6.56122,6.30794 -12,8 3.16953,-3.26008 6.39938,-6.22238 10,-9 z"
     style="fill:#3c5185"
     id="path44" />
  <path
     d="m 305.97597,281.16505 c 1.32,0.66 2.64,1.32 4,2 -0.39804,2.88576 -0.79009,3.8219 -3.0625,5.75 -0.95906,0.61875 -0.95906,0.61875 -1.9375,1.25 0.33,-2.97 0.66,-5.94 1,-9 z"
     style="fill:#345087"
     id="path46" />
</svg>
